<svg width="18" height="18" viewBox="0 0 18 18" fill="none" xmlns="http://www.w3.org/2000/svg">
<path fill-rule="evenodd" clip-rule="evenodd" d="M0 8.99996C0 4.04868 4.04844 0.000244141 8.99972 0.000244141C13.951 0.000244141 17.9994 4.04868 17.9994 8.99996C17.9994 13.9512 13.951 17.9997 8.99972 17.9997C4.04844 17.9997 0 13.9512 0 8.99996ZM8.99972 1.25602C4.74198 1.25602 1.25577 4.74223 1.25577 8.99996C1.25577 13.2577 4.74198 16.7439 8.99972 16.7439C13.2575 16.7439 16.7437 13.2577 16.7437 8.99996C16.7437 4.74223 13.2575 1.25602 8.99972 1.25602Z" fill="#6D6D6D"/>
<path fill-rule="evenodd" clip-rule="evenodd" d="M8.99898 5.02338C9.34575 5.02338 9.62687 5.30449 9.62687 5.65126V9.83718C9.62687 10.184 9.34575 10.4651 8.99898 10.4651C8.65221 10.4651 8.37109 10.184 8.37109 9.83718V5.65126C8.37109 5.30449 8.65221 5.02338 8.99898 5.02338Z" fill="#6D6D6D"/>
<path fill-rule="evenodd" clip-rule="evenodd" d="M8.15625 12.3487C8.15625 11.8864 8.53107 11.5115 8.99343 11.5115H9.00095C9.46332 11.5115 9.83814 11.8864 9.83814 12.3487C9.83814 12.8111 9.46332 13.1859 9.00095 13.1859H8.99343C8.53107 13.1859 8.15625 12.8111 8.15625 12.3487Z" fill="#6D6D6D"/>
</svg>
