<svg width="16" height="14" viewBox="0 0 16 14" fill="none" xmlns="http://www.w3.org/2000/svg">
<path d="M15.3641 6.21686C15.3641 6.32898 15.3276 6.39979 15.3046 6.42699L10.1971 11.0702C10.1938 11.0456 10.1919 11.0183 10.1919 10.9885V8.3641V7.7691H9.59686C6.0326 7.7691 2.9126 9.71994 1.06623 12.6515C1.02959 12.7043 0.986677 12.7307 0.939751 12.7443C0.885056 12.7601 0.817618 12.7593 0.753631 12.7386C0.688481 12.7176 0.654239 12.6852 0.642268 12.6682L0.641638 12.6673C0.636825 12.6605 0.630402 12.6515 0.636461 12.619C0.869977 11.5304 1.1736 10.4815 1.69082 9.521L1.69654 9.51036L1.70183 9.4995C3.12478 6.57871 6.11197 4.42603 9.59686 4.42603H10.1919V3.83103V1.44521C10.1919 1.4154 10.1938 1.38815 10.1971 1.36352L15.3046 6.00673C15.3276 6.03393 15.3641 6.10474 15.3641 6.21686Z" stroke="#6D6D6D" stroke-width="1.19"/>
</svg>
